<svg xmlns="http://www.w3.org/2000/svg" viewBox="0 0 16 16" width="256" height="256" shape-rendering="crispEdges" style="image-rendering:pixelated">
  <!-- enemy-stealth -->
  <rect x="6" y="1" width="4" height="1" fill="#00cc55"/>
  <rect x="5" y="2" width="1" height="1" fill="#00cc55"/>
  <rect x="6" y="2" width="4" height="1" fill="#00ff88"/>
  <rect x="10" y="2" width="1" height="1" fill="#00cc55"/>
  <rect x="4" y="3" width="1" height="1" fill="#00cc55"/>
  <rect x="5" y="3" width="1" height="1" fill="#00ff88"/>
  <rect x="6" y="3" width="1" height="1" fill="#aaffcc"/>
  <rect x="7" y="3" width="1" height="1" fill="#00ff88"/>
  <rect x="8" y="3" width="1" height="1" fill="#aaffcc"/>
  <rect x="9" y="3" width="2" height="1" fill="#00ff88"/>
  <rect x="11" y="3" width="1" height="1" fill="#00cc55"/>
  <rect x="4" y="4" width="1" height="1" fill="#00cc55"/>
  <rect x="5" y="4" width="6" height="1" fill="#00ff88"/>
  <rect x="11" y="4" width="1" height="1" fill="#00cc55"/>
  <rect x="3" y="5" width="1" height="1" fill="#005522"/>
  <rect x="4" y="5" width="1" height="1" fill="#00cc55"/>
  <rect x="5" y="5" width="6" height="1" fill="#00ff88"/>
  <rect x="11" y="5" width="1" height="1" fill="#00cc55"/>
  <rect x="12" y="5" width="1" height="1" fill="#005522"/>
  <rect x="3" y="6" width="1" height="1" fill="#005522"/>
  <rect x="4" y="6" width="1" height="1" fill="#00cc55"/>
  <rect x="5" y="6" width="6" height="1" fill="#00ff88"/>
  <rect x="11" y="6" width="1" height="1" fill="#00cc55"/>
  <rect x="12" y="6" width="1" height="1" fill="#005522"/>
  <rect x="3" y="7" width="1" height="1" fill="#005522"/>
  <rect x="4" y="7" width="1" height="1" fill="#00cc55"/>
  <rect x="5" y="7" width="1" height="1" fill="#00ff88"/>
  <rect x="6" y="7" width="1" height="1" fill="#00cc55"/>
  <rect x="7" y="7" width="1" height="1" fill="#111111"/>
  <rect x="8" y="7" width="1" height="1" fill="#00cc55"/>
  <rect x="9" y="7" width="2" height="1" fill="#00ff88"/>
  <rect x="11" y="7" width="1" height="1" fill="#00cc55"/>
  <rect x="12" y="7" width="1" height="1" fill="#005522"/>
  <rect x="3" y="8" width="1" height="1" fill="#005522"/>
  <rect x="4" y="8" width="1" height="1" fill="#00cc55"/>
  <rect x="5" y="8" width="6" height="1" fill="#00ff88"/>
  <rect x="11" y="8" width="1" height="1" fill="#00cc55"/>
  <rect x="12" y="8" width="1" height="1" fill="#005522"/>
  <rect x="3" y="9" width="1" height="1" fill="#005522"/>
  <rect x="4" y="9" width="1" height="1" fill="#00cc55"/>
  <rect x="5" y="9" width="6" height="1" fill="#00ff88"/>
  <rect x="11" y="9" width="1" height="1" fill="#00cc55"/>
  <rect x="12" y="9" width="1" height="1" fill="#005522"/>
  <rect x="4" y="10" width="1" height="1" fill="#005522"/>
  <rect x="5" y="10" width="1" height="1" fill="#00cc55"/>
  <rect x="6" y="10" width="4" height="1" fill="#00ff88"/>
  <rect x="10" y="10" width="1" height="1" fill="#00cc55"/>
  <rect x="11" y="10" width="1" height="1" fill="#005522"/>
  <rect x="4" y="11" width="1" height="1" fill="#008833"/>
  <rect x="5" y="11" width="6" height="1" fill="#005522"/>
  <rect x="11" y="11" width="1" height="1" fill="#008833"/>
  <rect x="3" y="12" width="2" height="1" fill="#008833"/>
  <rect x="5" y="12" width="1" height="1" fill="#005522"/>
  <rect x="6" y="12" width="3" height="1" fill="undefined"/>
  <rect x="9" y="12" width="1" height="1" fill="#005522"/>
  <rect x="10" y="12" width="2" height="1" fill="#008833"/>
  <rect x="3" y="13" width="1" height="1" fill="#008833"/>
  <rect x="4" y="13" width="1" height="1" fill="#005522"/>
  <rect x="5" y="13" width="6" height="1" fill="undefined"/>
  <rect x="11" y="13" width="1" height="1" fill="#008833"/>
  <rect x="2" y="14" width="2" height="1" fill="undefined"/>
  <rect x="4" y="14" width="7" height="1" fill="undefined"/>
  <rect x="11" y="14" width="1" height="1" fill="undefined"/>
</svg>
