<svg xmlns="http://www.w3.org/2000/svg" viewBox="0 0 16 16" width="256" height="256" shape-rendering="crispEdges" style="image-rendering:pixelated">
  <!-- tower-tesla-fire -->
  <rect x="4" y="2" width="6" height="1" fill="#0a0010"/>
  <rect x="10" y="2" width="1" height="1" fill="undefined"/>
  <rect x="11" y="2" width="2" height="1" fill="#0a0010"/>
  <rect x="4" y="3" width="1" height="1" fill="#0a0010"/>
  <rect x="5" y="3" width="6" height="1" fill="#440088"/>
  <rect x="11" y="3" width="1" height="1" fill="#6600aa"/>
  <rect x="12" y="3" width="1" height="1" fill="#0a0010"/>
  <rect x="4" y="4" width="1" height="1" fill="#0a0010"/>
  <rect x="5" y="4" width="1" height="1" fill="#440088"/>
  <rect x="6" y="4" width="4" height="1" fill="#9922cc"/>
  <rect x="10" y="4" width="2" height="1" fill="#6600aa"/>
  <rect x="12" y="4" width="1" height="1" fill="#0a0010"/>
  <rect x="0" y="5" width="2" height="1" fill="#ffee44"/>
  <rect x="4" y="5" width="1" height="1" fill="#0a0010"/>
  <rect x="5" y="5" width="1" height="1" fill="#440088"/>
  <rect x="6" y="5" width="1" height="1" fill="#9922cc"/>
  <rect x="7" y="5" width="3" height="1" fill="#cc44ff"/>
  <rect x="10" y="5" width="1" height="1" fill="#9922cc"/>
  <rect x="11" y="5" width="1" height="1" fill="#6600aa"/>
  <rect x="12" y="5" width="1" height="1" fill="#0a0010"/>
  <rect x="4" y="6" width="1" height="1" fill="#0a0010"/>
  <rect x="5" y="6" width="1" height="1" fill="#440088"/>
  <rect x="6" y="6" width="1" height="1" fill="#9922cc"/>
  <rect x="7" y="6" width="1" height="1" fill="#cc44ff"/>
  <rect x="8" y="6" width="1" height="1" fill="#ffffff"/>
  <rect x="9" y="6" width="1" height="1" fill="#cc44ff"/>
  <rect x="10" y="6" width="1" height="1" fill="#9922cc"/>
  <rect x="11" y="6" width="1" height="1" fill="#6600aa"/>
  <rect x="12" y="6" width="1" height="1" fill="#0a0010"/>
  <rect x="13" y="6" width="1" height="1" fill="#cc44ff"/>
  <rect x="14" y="6" width="1" height="1" fill="#ffee44"/>
  <rect x="15" y="6" width="1" height="1" fill="#cc44ff"/>
  <rect x="16" y="6" width="1" height="1" fill="#ffee44"/>
  <rect x="4" y="7" width="1" height="1" fill="#0a0010"/>
  <rect x="5" y="7" width="1" height="1" fill="#440088"/>
  <rect x="6" y="7" width="1" height="1" fill="#9922cc"/>
  <rect x="7" y="7" width="1" height="1" fill="#cc44ff"/>
  <rect x="8" y="7" width="1" height="1" fill="#ffffff"/>
  <rect x="9" y="7" width="1" height="1" fill="#cc44ff"/>
  <rect x="10" y="7" width="1" height="1" fill="#9922cc"/>
  <rect x="11" y="7" width="1" height="1" fill="#6600aa"/>
  <rect x="12" y="7" width="1" height="1" fill="#0a0010"/>
  <rect x="13" y="7" width="1" height="1" fill="#ffee44"/>
  <rect x="14" y="7" width="1" height="1" fill="#cc44ff"/>
  <rect x="15" y="7" width="1" height="1" fill="#ffee44"/>
  <rect x="16" y="7" width="1" height="1" fill="#ffffff"/>
  <rect x="4" y="8" width="1" height="1" fill="#0a0010"/>
  <rect x="5" y="8" width="1" height="1" fill="#440088"/>
  <rect x="6" y="8" width="1" height="1" fill="#9922cc"/>
  <rect x="7" y="8" width="1" height="1" fill="#cc44ff"/>
  <rect x="8" y="8" width="1" height="1" fill="#ffffff"/>
  <rect x="9" y="8" width="1" height="1" fill="#cc44ff"/>
  <rect x="10" y="8" width="1" height="1" fill="#9922cc"/>
  <rect x="11" y="8" width="1" height="1" fill="#6600aa"/>
  <rect x="12" y="8" width="1" height="1" fill="#0a0010"/>
  <rect x="13" y="8" width="1" height="1" fill="#cc44ff"/>
  <rect x="14" y="8" width="1" height="1" fill="#ffee44"/>
  <rect x="15" y="8" width="1" height="1" fill="#cc44ff"/>
  <rect x="16" y="8" width="1" height="1" fill="#ffee44"/>
  <rect x="0" y="9" width="2" height="1" fill="#ffee44"/>
  <rect x="4" y="9" width="1" height="1" fill="#0a0010"/>
  <rect x="5" y="9" width="1" height="1" fill="#440088"/>
  <rect x="6" y="9" width="1" height="1" fill="#9922cc"/>
  <rect x="7" y="9" width="3" height="1" fill="#cc44ff"/>
  <rect x="10" y="9" width="1" height="1" fill="#9922cc"/>
  <rect x="11" y="9" width="1" height="1" fill="#6600aa"/>
  <rect x="12" y="9" width="1" height="1" fill="#0a0010"/>
  <rect x="4" y="10" width="1" height="1" fill="#0a0010"/>
  <rect x="5" y="10" width="1" height="1" fill="#440088"/>
  <rect x="6" y="10" width="4" height="1" fill="#9922cc"/>
  <rect x="10" y="10" width="2" height="1" fill="#6600aa"/>
  <rect x="12" y="10" width="1" height="1" fill="#0a0010"/>
  <rect x="4" y="11" width="1" height="1" fill="#0a0010"/>
  <rect x="5" y="11" width="6" height="1" fill="#440088"/>
  <rect x="11" y="11" width="1" height="1" fill="#6600aa"/>
  <rect x="12" y="11" width="1" height="1" fill="#0a0010"/>
  <rect x="4" y="12" width="6" height="1" fill="#0a0010"/>
  <rect x="10" y="12" width="1" height="1" fill="undefined"/>
  <rect x="11" y="12" width="2" height="1" fill="#0a0010"/>
</svg>
